<svg width="24" height="24" viewBox="0 0 24 24" fill="none" xmlns="http://www.w3.org/2000/svg">
<path d="M5.5 22C5.1 22 4.75 21.85 4.45 21.55C4.15 21.25 4 20.9 4 20.5V7.5C4 7.1 4.15 6.75 4.45 6.45C4.75 6.15 5.1 6 5.5 6H8.25V5.75C8.25 4.7 8.6125 3.8125 9.3375 3.0875C10.0625 2.3625 10.95 2 12 2C13.05 2 13.9375 2.3625 14.6625 3.0875C15.3875 3.8125 15.75 4.7 15.75 5.75V6H18.5C18.9 6 19.25 6.15 19.55 6.45C19.85 6.75 20 7.1 20 7.5V20.5C20 20.9 19.85 21.25 19.55 21.55C19.25 21.85 18.9 22 18.5 22H5.5ZM5.5 20.5H18.5V7.5H15.75V9.75C15.75 9.96667 15.6792 10.1458 15.5375 10.2875C15.3958 10.4292 15.2167 10.5 15 10.5C14.7833 10.5 14.6042 10.4292 14.4625 10.2875C14.3208 10.1458 14.25 9.96667 14.25 9.75V7.5H9.75V9.75C9.75 9.96667 9.67917 10.1458 9.5375 10.2875C9.39583 10.4292 9.21667 10.5 9 10.5C8.78333 10.5 8.60417 10.4292 8.4625 10.2875C8.32083 10.1458 8.25 9.96667 8.25 9.75V7.5H5.5V20.5ZM9.75 6H14.25V5.75C14.25 5.11667 14.0333 4.58333 13.6 4.15C13.1667 3.71667 12.6333 3.5 12 3.5C11.3667 3.5 10.8333 3.71667 10.4 4.15C9.96667 4.58333 9.75 5.11667 9.75 5.75V6ZM5.5 20.5V7.5V20.5Z" fill="#878C98"/>
</svg>
