<svg width="158" height="24" viewBox="0 0 158 24" fill="none" xmlns="http://www.w3.org/2000/svg">
<path d="M2.12891 0.9375H5.10547L9.48828 13.4648L13.8711 0.9375H16.8477L10.6836 18H8.29297L2.12891 0.9375ZM0.523438 0.9375H3.48828L4.02734 13.1484V18H0.523438V0.9375ZM15.4883 0.9375H18.4648V18H14.9492V13.1484L15.4883 0.9375ZM83.3281 12.3398H86.832C86.7617 13.4883 86.4453 14.5078 85.8828 15.3984C85.3281 16.2891 84.5508 16.9844 83.5508 17.4844C82.5586 17.9844 81.3633 18.2344 79.9648 18.2344C78.8711 18.2344 77.8906 18.0469 77.0234 17.6719C76.1562 17.2891 75.4141 16.7422 74.7969 16.0312C74.1875 15.3203 73.7227 14.4609 73.4023 13.4531C73.082 12.4453 72.9219 11.3164 72.9219 10.0664V8.88281C72.9219 7.63281 73.0859 6.50391 73.4141 5.49609C73.75 4.48047 74.2266 3.61719 74.8438 2.90625C75.4688 2.19531 76.2148 1.64844 77.082 1.26562C77.9492 0.882812 78.918 0.691406 79.9883 0.691406C81.4102 0.691406 82.6094 0.949219 83.5859 1.46484C84.5703 1.98047 85.332 2.69141 85.8711 3.59766C86.418 4.50391 86.7461 5.53516 86.8555 6.69141H83.3398C83.3008 6.00391 83.1641 5.42188 82.9297 4.94531C82.6953 4.46094 82.3398 4.09766 81.8633 3.85547C81.3945 3.60547 80.7695 3.48047 79.9883 3.48047C79.4023 3.48047 78.8906 3.58984 78.4531 3.80859C78.0156 4.02734 77.6484 4.35938 77.3516 4.80469C77.0547 5.25 76.832 5.8125 76.6836 6.49219C76.543 7.16406 76.4727 7.95312 76.4727 8.85938V10.0664C76.4727 10.9492 76.5391 11.7266 76.6719 12.3984C76.8047 13.0625 77.0078 13.625 77.2812 14.0859C77.5625 14.5391 77.9219 14.8828 78.3594 15.1172C78.8047 15.3438 79.3398 15.457 79.9648 15.457C80.6992 15.457 81.3047 15.3398 81.7812 15.1055C82.2578 14.8711 82.6211 14.5234 82.8711 14.0625C83.1289 13.6016 83.2812 13.0273 83.3281 12.3398Z" fill="#5689C0"/>
<path d="M20.7969 11.7891V11.543C20.7969 10.6133 20.9297 9.75781 21.1953 8.97656C21.4609 8.1875 21.8477 7.50391 22.3555 6.92578C22.8633 6.34766 23.4883 5.89844 24.2305 5.57812C24.9727 5.25 25.8242 5.08594 26.7852 5.08594C27.7461 5.08594 28.6016 5.25 29.3516 5.57812C30.1016 5.89844 30.7305 6.34766 31.2383 6.92578C31.7539 7.50391 32.1445 8.1875 32.4102 8.97656C32.6758 9.75781 32.8086 10.6133 32.8086 11.543V11.7891C32.8086 12.7109 32.6758 13.5664 32.4102 14.3555C32.1445 15.1367 31.7539 15.8203 31.2383 16.4062C30.7305 16.9844 30.1055 17.4336 29.3633 17.7539C28.6211 18.0742 27.7695 18.2344 26.8086 18.2344C25.8477 18.2344 24.9922 18.0742 24.2422 17.7539C23.5 17.4336 22.8711 16.9844 22.3555 16.4062C21.8477 15.8203 21.4609 15.1367 21.1953 14.3555C20.9297 13.5664 20.7969 12.7109 20.7969 11.7891ZM24.1719 11.543V11.7891C24.1719 12.3203 24.2188 12.8164 24.3125 13.2773C24.4062 13.7383 24.5547 14.1445 24.7578 14.4961C24.9688 14.8398 25.2422 15.1094 25.5781 15.3047C25.9141 15.5 26.3242 15.5977 26.8086 15.5977C27.2773 15.5977 27.6797 15.5 28.0156 15.3047C28.3516 15.1094 28.6211 14.8398 28.8242 14.4961C29.0273 14.1445 29.1758 13.7383 29.2695 13.2773C29.3711 12.8164 29.4219 12.3203 29.4219 11.7891V11.543C29.4219 11.0273 29.3711 10.543 29.2695 10.0898C29.1758 9.62891 29.0234 9.22266 28.8125 8.87109C28.6094 8.51172 28.3398 8.23047 28.0039 8.02734C27.668 7.82422 27.2617 7.72266 26.7852 7.72266C26.3086 7.72266 25.9023 7.82422 25.5664 8.02734C25.2383 8.23047 24.9688 8.51172 24.7578 8.87109C24.5547 9.22266 24.4062 9.62891 24.3125 10.0898C24.2188 10.543 24.1719 11.0273 24.1719 11.543ZM38.1875 8.02734V18H34.8125V5.32031H37.9766L38.1875 8.02734ZM37.6953 11.2148H36.7812C36.7812 10.2773 36.9023 9.43359 37.1445 8.68359C37.3867 7.92578 37.7266 7.28125 38.1641 6.75C38.6016 6.21094 39.1211 5.80078 39.7227 5.51953C40.332 5.23047 41.0117 5.08594 41.7617 5.08594C42.3555 5.08594 42.8984 5.17188 43.3906 5.34375C43.8828 5.51562 44.3047 5.78906 44.6562 6.16406C45.0156 6.53906 45.2891 7.03516 45.4766 7.65234C45.6719 8.26953 45.7695 9.02344 45.7695 9.91406V18H42.3711V9.90234C42.3711 9.33984 42.293 8.90234 42.1367 8.58984C41.9805 8.27734 41.75 8.05859 41.4453 7.93359C41.1484 7.80078 40.7812 7.73438 40.3438 7.73438C39.8906 7.73438 39.4961 7.82422 39.1602 8.00391C38.832 8.18359 38.5586 8.43359 38.3398 8.75391C38.1289 9.06641 37.9688 9.43359 37.8594 9.85547C37.75 10.2773 37.6953 10.7305 37.6953 11.2148ZM54.1719 18.2344C53.1875 18.2344 52.3047 18.0781 51.5234 17.7656C50.7422 17.4453 50.0781 17.0039 49.5312 16.4414C48.9922 15.8789 48.5781 15.2266 48.2891 14.4844C48 13.7344 47.8555 12.9375 47.8555 12.0938V11.625C47.8555 10.6641 47.9922 9.78516 48.2656 8.98828C48.5391 8.19141 48.9297 7.5 49.4375 6.91406C49.9531 6.32812 50.5781 5.87891 51.3125 5.56641C52.0469 5.24609 52.875 5.08594 53.7969 5.08594C54.6953 5.08594 55.4922 5.23438 56.1875 5.53125C56.8828 5.82812 57.4648 6.25 57.9336 6.79688C58.4102 7.34375 58.7695 8 59.0117 8.76562C59.2539 9.52344 59.375 10.3672 59.375 11.2969V12.7031H49.2969V10.4531H56.0586V10.1953C56.0586 9.72656 55.9727 9.30859 55.8008 8.94141C55.6367 8.56641 55.3867 8.26953 55.0508 8.05078C54.7148 7.83203 54.2852 7.72266 53.7617 7.72266C53.3164 7.72266 52.9336 7.82031 52.6133 8.01562C52.293 8.21094 52.0312 8.48438 51.8281 8.83594C51.6328 9.1875 51.4844 9.60156 51.3828 10.0781C51.2891 10.5469 51.2422 11.0625 51.2422 11.625V12.0938C51.2422 12.6016 51.3125 13.0703 51.4531 13.5C51.6016 13.9297 51.8086 14.3008 52.0742 14.6133C52.3477 14.9258 52.6758 15.168 53.0586 15.3398C53.4492 15.5117 53.8906 15.5977 54.3828 15.5977C54.9922 15.5977 55.5586 15.4805 56.082 15.2461C56.6133 15.0039 57.0703 14.6406 57.4531 14.1562L59.0938 15.9375C58.8281 16.3203 58.4648 16.6875 58.0039 17.0391C57.5508 17.3906 57.0039 17.6797 56.3633 17.9062C55.7227 18.125 54.9922 18.2344 54.1719 18.2344ZM64.8945 16.5703L68.2578 5.32031H71.8789L66.7812 19.9102C66.6719 20.2305 66.5234 20.5742 66.3359 20.9414C66.1562 21.3086 65.9102 21.6562 65.5977 21.9844C65.293 22.3203 64.9062 22.5938 64.4375 22.8047C63.9766 23.0156 63.4102 23.1211 62.7383 23.1211C62.418 23.1211 62.1562 23.1016 61.9531 23.0625C61.75 23.0234 61.5078 22.9688 61.2266 22.8984V20.4258C61.3125 20.4258 61.4023 20.4258 61.4961 20.4258C61.5898 20.4336 61.6797 20.4375 61.7656 20.4375C62.2109 20.4375 62.5742 20.3867 62.8555 20.2852C63.1367 20.1836 63.3633 20.0273 63.5352 19.8164C63.707 19.6133 63.8438 19.3477 63.9453 19.0195L64.8945 16.5703ZM63.4883 5.32031L66.2422 14.5078L66.7227 18.082L64.4258 18.3281L59.8672 5.32031H63.4883ZM88.3906 11.7891V11.543C88.3906 10.6133 88.5234 9.75781 88.7891 8.97656C89.0547 8.1875 89.4414 7.50391 89.9492 6.92578C90.457 6.34766 91.082 5.89844 91.8242 5.57812C92.5664 5.25 93.418 5.08594 94.3789 5.08594C95.3398 5.08594 96.1953 5.25 96.9453 5.57812C97.6953 5.89844 98.3242 6.34766 98.832 6.92578C99.3477 7.50391 99.7383 8.1875 100.004 8.97656C100.27 9.75781 100.402 10.6133 100.402 11.543V11.7891C100.402 12.7109 100.27 13.5664 100.004 14.3555C99.7383 15.1367 99.3477 15.8203 98.832 16.4062C98.3242 16.9844 97.6992 17.4336 96.957 17.7539C96.2148 18.0742 95.3633 18.2344 94.4023 18.2344C93.4414 18.2344 92.5859 18.0742 91.8359 17.7539C91.0938 17.4336 90.4648 16.9844 89.9492 16.4062C89.4414 15.8203 89.0547 15.1367 88.7891 14.3555C88.5234 13.5664 88.3906 12.7109 88.3906 11.7891ZM91.7656 11.543V11.7891C91.7656 12.3203 91.8125 12.8164 91.9062 13.2773C92 13.7383 92.1484 14.1445 92.3516 14.4961C92.5625 14.8398 92.8359 15.1094 93.1719 15.3047C93.5078 15.5 93.918 15.5977 94.4023 15.5977C94.8711 15.5977 95.2734 15.5 95.6094 15.3047C95.9453 15.1094 96.2148 14.8398 96.418 14.4961C96.6211 14.1445 96.7695 13.7383 96.8633 13.2773C96.9648 12.8164 97.0156 12.3203 97.0156 11.7891V11.543C97.0156 11.0273 96.9648 10.543 96.8633 10.0898C96.7695 9.62891 96.6172 9.22266 96.4062 8.87109C96.2031 8.51172 95.9336 8.23047 95.5977 8.02734C95.2617 7.82422 94.8555 7.72266 94.3789 7.72266C93.9023 7.72266 93.4961 7.82422 93.1602 8.02734C92.832 8.23047 92.5625 8.51172 92.3516 8.87109C92.1484 9.22266 92 9.62891 91.9062 10.0898C91.8125 10.543 91.7656 11.0273 91.7656 11.543ZM109.977 14.9648V5.32031H113.352V18H110.176L109.977 14.9648ZM110.352 12.3633L111.348 12.3398C111.348 13.1836 111.25 13.9688 111.055 14.6953C110.859 15.4141 110.566 16.0391 110.176 16.5703C109.785 17.0938 109.293 17.5039 108.699 17.8008C108.105 18.0898 107.406 18.2344 106.602 18.2344C105.984 18.2344 105.414 18.1484 104.891 17.9766C104.375 17.7969 103.93 17.5195 103.555 17.1445C103.188 16.7617 102.898 16.2734 102.688 15.6797C102.484 15.0781 102.383 14.3555 102.383 13.5117V5.32031H105.758V13.5352C105.758 13.9102 105.801 14.2266 105.887 14.4844C105.98 14.7422 106.109 14.9531 106.273 15.1172C106.438 15.2812 106.629 15.3984 106.848 15.4688C107.074 15.5391 107.324 15.5742 107.598 15.5742C108.293 15.5742 108.84 15.4336 109.238 15.1523C109.645 14.8711 109.93 14.4883 110.094 14.0039C110.266 13.5117 110.352 12.9648 110.352 12.3633ZM119.234 8.02734V18H115.859V5.32031H119.023L119.234 8.02734ZM118.742 11.2148H117.828C117.828 10.2773 117.949 9.43359 118.191 8.68359C118.434 7.92578 118.773 7.28125 119.211 6.75C119.648 6.21094 120.168 5.80078 120.77 5.51953C121.379 5.23047 122.059 5.08594 122.809 5.08594C123.402 5.08594 123.945 5.17188 124.438 5.34375C124.93 5.51562 125.352 5.78906 125.703 6.16406C126.062 6.53906 126.336 7.03516 126.523 7.65234C126.719 8.26953 126.816 9.02344 126.816 9.91406V18H123.418V9.90234C123.418 9.33984 123.34 8.90234 123.184 8.58984C123.027 8.27734 122.797 8.05859 122.492 7.93359C122.195 7.80078 121.828 7.73438 121.391 7.73438C120.938 7.73438 120.543 7.82422 120.207 8.00391C119.879 8.18359 119.605 8.43359 119.387 8.75391C119.176 9.06641 119.016 9.43359 118.906 9.85547C118.797 10.2773 118.742 10.7305 118.742 11.2148ZM135.594 5.32031V7.71094H128.211V5.32031H135.594ZM130.039 2.19141H133.414V14.1797C133.414 14.5469 133.461 14.8281 133.555 15.0234C133.656 15.2188 133.805 15.3555 134 15.4336C134.195 15.5039 134.441 15.5391 134.738 15.5391C134.949 15.5391 135.137 15.5312 135.301 15.5156C135.473 15.4922 135.617 15.4688 135.734 15.4453L135.746 17.9297C135.457 18.0234 135.145 18.0977 134.809 18.1523C134.473 18.207 134.102 18.2344 133.695 18.2344C132.953 18.2344 132.305 18.1133 131.75 17.8711C131.203 17.6211 130.781 17.2227 130.484 16.6758C130.188 16.1289 130.039 15.4102 130.039 14.5195V2.19141ZM143.352 18.2344C142.367 18.2344 141.484 18.0781 140.703 17.7656C139.922 17.4453 139.258 17.0039 138.711 16.4414C138.172 15.8789 137.758 15.2266 137.469 14.4844C137.18 13.7344 137.035 12.9375 137.035 12.0938V11.625C137.035 10.6641 137.172 9.78516 137.445 8.98828C137.719 8.19141 138.109 7.5 138.617 6.91406C139.133 6.32812 139.758 5.87891 140.492 5.56641C141.227 5.24609 142.055 5.08594 142.977 5.08594C143.875 5.08594 144.672 5.23438 145.367 5.53125C146.062 5.82812 146.645 6.25 147.113 6.79688C147.59 7.34375 147.949 8 148.191 8.76562C148.434 9.52344 148.555 10.3672 148.555 11.2969V12.7031H138.477V10.4531H145.238V10.1953C145.238 9.72656 145.152 9.30859 144.98 8.94141C144.816 8.56641 144.566 8.26953 144.23 8.05078C143.895 7.83203 143.465 7.72266 142.941 7.72266C142.496 7.72266 142.113 7.82031 141.793 8.01562C141.473 8.21094 141.211 8.48438 141.008 8.83594C140.812 9.1875 140.664 9.60156 140.562 10.0781C140.469 10.5469 140.422 11.0625 140.422 11.625V12.0938C140.422 12.6016 140.492 13.0703 140.633 13.5C140.781 13.9297 140.988 14.3008 141.254 14.6133C141.527 14.9258 141.855 15.168 142.238 15.3398C142.629 15.5117 143.07 15.5977 143.562 15.5977C144.172 15.5977 144.738 15.4805 145.262 15.2461C145.793 15.0039 146.25 14.6406 146.633 14.1562L148.273 15.9375C148.008 16.3203 147.645 16.6875 147.184 17.0391C146.73 17.3906 146.184 17.6797 145.543 17.9062C144.902 18.125 144.172 18.2344 143.352 18.2344ZM153.852 8.08594V18H150.477V5.32031H153.652L153.852 8.08594ZM157.672 5.23828L157.613 8.36719C157.449 8.34375 157.25 8.32422 157.016 8.30859C156.789 8.28516 156.582 8.27344 156.395 8.27344C155.918 8.27344 155.504 8.33594 155.152 8.46094C154.809 8.57812 154.52 8.75391 154.285 8.98828C154.059 9.22266 153.887 9.50781 153.77 9.84375C153.66 10.1797 153.598 10.5625 153.582 10.9922L152.902 10.7812C152.902 9.96094 152.984 9.20703 153.148 8.51953C153.312 7.82422 153.551 7.21875 153.863 6.70312C154.184 6.1875 154.574 5.78906 155.035 5.50781C155.496 5.22656 156.023 5.08594 156.617 5.08594C156.805 5.08594 156.996 5.10156 157.191 5.13281C157.387 5.15625 157.547 5.19141 157.672 5.23828Z" fill="#070A0F"/>
</svg>
