<svg width="16" height="16" viewBox="0 0 16 16" fill="none" xmlns="http://www.w3.org/2000/svg">
<path d="M4.83331 14V11.8333H3.33331V10.8333H4.83331V9H3.33331V8H4.83331V2H9.16665C10.1444 2 10.9722 2.33889 11.65 3.01667C12.3278 3.69444 12.6666 4.52222 12.6666 5.5C12.6666 6.47778 12.3278 7.30556 11.65 7.98333C10.9722 8.66111 10.1444 9 9.16665 9H5.83331V10.8333H8.66665V11.8333H5.83331V14H4.83331ZM5.83331 8H9.16665C9.86665 8 10.4583 7.75556 10.9416 7.26667C11.425 6.77778 11.6666 6.18889 11.6666 5.5C11.6666 4.8 11.425 4.20833 10.9416 3.725C10.4583 3.24167 9.86665 3 9.16665 3H5.83331V8Z" fill="#878C98"/>
</svg>
